#Comment line ignore any data following # character 
#Hierarchical Translation and Rotation (.htr) file 
[Header]	
#Header keywords are followed by a single value 
FileType HTR		#Single word string
DataType HTRS		#Translation followed by rotation and scale data
FileVersion 1		#integer
NumSegments 84		#integer
NumFrames 2		#integer
DataFrameRate 30		#integer, data frame rate in this file
EulerRotationOrder ZYX
CalibrationUnits mm
RotationUnits Degrees
GlobalAxisofGravity Y
BoneLengthAxis Y
ScaleFactor 1.00
[SegmentNames&Hierarchy]
#CHILD	PARENT
MASTER GLOBAL
root MASTER
chest root
L_mid_tent01 root
R_mid_tent01 root
spine01 root
Bip01_Neck chest
L_humerus chest
R_humerus chest
weapon_bone chest
Bip01_Head Bip01_Neck
eye_left_bone Bip01_Head
eye_right_bone Bip01_Head
L_forearm L_humerus
L_front_hand L_forearm
L_weapon_bone L_forearm
L_front_hand01_01 L_front_hand
L_front_hand02_01 L_front_hand
L_front_hand03_01 L_front_hand
L_front_hand01_02 L_front_hand01_01
L_front_hand02_02 L_front_hand02_01
L_front_hand03_02 L_front_hand03_01
R_forearm R_humerus
R_front_hand R_forearm
R_weapon_bone R_forearm
R_front_hand01_01 R_front_hand
R_front_hand02_01 R_front_hand
R_front_hand03_01 R_front_hand
R_front_hand01_02 R_front_hand01_01
R_front_hand02_02 R_front_hand02_01
R_front_hand03_02 R_front_hand03_01
null_rope01_connect L_mid_tent01
Rope1_Seg01 null_rope01_connect
Rope1_Seg02 Rope1_Seg01
Rope1_Seg03 Rope1_Seg02
Rope1_Seg04 Rope1_Seg03
Rope1_Seg05 Rope1_Seg04
Rope1_Seg06 Rope1_Seg05
Rope1_Seg07 Rope1_Seg06
Rope1_Seg09 Rope1_Seg07
L_mid_hand01 Rope1_Seg09
L_mid_hand02 Rope1_Seg09
L_mid_hand03 Rope1_Seg09
null_rope02_connect R_mid_tent01
Rope2_Seg01 null_rope02_connect
Rope2_Seg02 Rope2_Seg01
Rope2_Seg03 Rope2_Seg02
Rope2_Seg04 Rope2_Seg03
Rope2_Seg05 Rope2_Seg04
Rope2_Seg06 Rope2_Seg05
Rope2_Seg07 Rope2_Seg06
Rope2_Seg09 Rope2_Seg07
R_mid_hand01 Rope2_Seg09
R_mid_hand02 Rope2_Seg09
R_mid_hand03 Rope2_Seg09
spine02 spine01
spine03 spine02
pelvis spine03
null_rope03_connect pelvis
null_rope04_connect pelvis
Rope3_Seg01 null_rope03_connect
Rope3_Seg02 Rope3_Seg01
Rope3_Seg03 Rope3_Seg02
Rope3_Seg04 Rope3_Seg03
Rope3_Seg05 Rope3_Seg04
Rope3_Seg06 Rope3_Seg05
Rope3_Seg07 Rope3_Seg06
Rope3_Seg08 Rope3_Seg07
Rope3_Seg09 Rope3_Seg08
R_rear_hand01 Rope3_Seg09
R_rear_hand02 Rope3_Seg09
R_rear_hand03 Rope3_Seg09
Rope4_Seg01 null_rope04_connect
Rope4_Seg02 Rope4_Seg01
Rope4_Seg03 Rope4_Seg02
Rope4_Seg04 Rope4_Seg03
Rope4_Seg05 Rope4_Seg04
Rope4_Seg06 Rope4_Seg05
Rope4_Seg07 Rope4_Seg06
Rope4_Seg08 Rope4_Seg07
Rope4_Seg09 Rope4_Seg08
L_rear_hand01 Rope4_Seg09
L_rear_hand02 Rope4_Seg09
L_rear_hand03 Rope4_Seg09
[BasePosition]
#SegmentName Tx, Ty, Tz, Rx, Ry, Rz, BoneLength
MASTER 0.000000 0.000000 0.000000 -90.000000 0.000000 0.000000 10.000000 
root 0.000000 0.000000 0.000000 0.000000 0.000000 0.000000 10.000000 
chest 0.000000 0.000000 0.000000 0.000000 0.000000 0.000000 10.000000 
L_mid_tent01 0.000000 0.000000 0.000000 0.000000 0.000000 0.000000 10.000000 
R_mid_tent01 0.000000 0.000000 0.000000 0.000000 0.000000 0.000000 10.000000 
spine01 0.000000 0.000000 0.000000 0.000000 0.000000 0.000000 10.000000 
Bip01_Neck 0.000000 0.000000 0.000000 0.000000 0.000000 0.000000 10.000000 
L_humerus 0.000000 0.000000 0.000000 0.000000 0.000000 0.000000 10.000000 
R_humerus 0.000000 0.000000 0.000000 0.000000 0.000000 0.000000 10.000000 
weapon_bone 0.000000 0.000000 0.000000 0.000000 0.000000 0.000000 10.000000 
Bip01_Head 0.000000 0.000000 0.000000 0.000000 0.000000 0.000000 10.000000 
eye_left_bone 0.000000 0.000000 0.000000 0.000000 0.000000 0.000000 10.000000 
eye_right_bone 0.000000 0.000000 0.000000 0.000000 0.000000 0.000000 10.000000 
L_forearm 0.000000 0.000000 0.000000 0.000000 0.000000 0.000000 10.000000 
L_front_hand 0.000000 0.000000 0.000000 0.000000 0.000000 0.000000 10.000000 
L_weapon_bone 0.000000 0.000000 0.000000 0.000000 0.000000 0.000000 10.000000 
L_front_hand01_01 0.000000 0.000000 0.000000 0.000000 0.000000 0.000000 10.000000 
L_front_hand02_01 0.000000 0.000000 0.000000 0.000000 0.000000 0.000000 10.000000 
L_front_hand03_01 0.000000 0.000000 0.000000 0.000000 0.000000 0.000000 10.000000 
L_front_hand01_02 0.000000 0.000000 0.000000 0.000000 0.000000 0.000000 10.000000 
L_front_hand02_02 0.000000 0.000000 0.000000 0.000000 0.000000 0.000000 10.000000 
L_front_hand03_02 0.000000 0.000000 0.000000 0.000000 0.000000 0.000000 10.000000 
R_forearm 0.000000 0.000000 0.000000 0.000000 0.000000 0.000000 10.000000 
R_front_hand 0.000000 0.000000 0.000000 0.000000 0.000000 0.000000 10.000000 
R_weapon_bone 0.000000 0.000000 0.000000 0.000000 0.000000 0.000000 10.000000 
R_front_hand01_01 0.000000 0.000000 0.000000 0.000000 0.000000 0.000000 10.000000 
R_front_hand02_01 0.000000 0.000000 0.000000 0.000000 0.000000 0.000000 10.000000 
R_front_hand03_01 0.000000 0.000000 0.000000 0.000000 0.000000 0.000000 10.000000 
R_front_hand01_02 0.000000 0.000000 0.000000 0.000000 0.000000 0.000000 10.000000 
R_front_hand02_02 0.000000 0.000000 0.000000 0.000000 0.000000 0.000000 10.000000 
R_front_hand03_02 0.000000 0.000000 0.000000 0.000000 0.000000 0.000000 10.000000 
null_rope01_connect 0.000000 0.000000 0.000000 0.000000 0.000000 0.000000 10.000000 
Rope1_Seg01 0.000000 0.000000 0.000000 0.000000 0.000000 0.000000 10.000000 
Rope1_Seg02 0.000000 0.000000 0.000000 0.000000 0.000000 0.000000 10.000000 
Rope1_Seg03 0.000000 0.000000 0.000000 0.000000 0.000000 0.000000 10.000000 
Rope1_Seg04 0.000000 0.000000 0.000000 0.000000 0.000000 0.000000 10.000000 
Rope1_Seg05 0.000000 0.000000 0.000000 0.000000 0.000000 0.000000 10.000000 
Rope1_Seg06 0.000000 0.000000 0.000000 0.000000 0.000000 0.000000 10.000000 
Rope1_Seg07 0.000000 0.000000 0.000000 0.000000 0.000000 0.000000 10.000000 
Rope1_Seg09 0.000000 0.000000 0.000000 0.000000 0.000000 0.000000 10.000000 
L_mid_hand01 0.000000 0.000000 0.000000 0.000000 0.000000 0.000000 10.000000 
L_mid_hand02 0.000000 0.000000 0.000000 0.000000 0.000000 0.000000 10.000000 
L_mid_hand03 0.000000 0.000000 0.000000 0.000000 0.000000 0.000000 10.000000 
null_rope02_connect 0.000000 0.000000 0.000000 0.000000 0.000000 0.000000 10.000000 
Rope2_Seg01 0.000000 0.000000 0.000000 0.000000 0.000000 0.000000 10.000000 
Rope2_Seg02 0.000000 0.000000 0.000000 0.000000 0.000000 0.000000 10.000000 
Rope2_Seg03 0.000000 0.000000 0.000000 0.000000 0.000000 0.000000 10.000000 
Rope2_Seg04 0.000000 0.000000 0.000000 0.000000 0.000000 0.000000 10.000000 
Rope2_Seg05 0.000000 0.000000 0.000000 0.000000 0.000000 0.000000 10.000000 
Rope2_Seg06 0.000000 0.000000 0.000000 0.000000 0.000000 0.000000 10.000000 
Rope2_Seg07 0.000000 0.000000 0.000000 0.000000 0.000000 0.000000 10.000000 
Rope2_Seg09 0.000000 0.000000 0.000000 0.000000 0.000000 0.000000 10.000000 
R_mid_hand01 0.000000 0.000000 0.000000 0.000000 0.000000 0.000000 10.000000 
R_mid_hand02 0.000000 0.000000 0.000000 0.000000 0.000000 0.000000 10.000000 
R_mid_hand03 0.000000 0.000000 0.000000 0.000000 0.000000 0.000000 10.000000 
spine02 0.000000 0.000000 0.000000 0.000000 0.000000 0.000000 10.000000 
spine03 0.000000 0.000000 0.000000 0.000000 0.000000 0.000000 10.000000 
pelvis 0.000000 0.000000 0.000000 0.000000 0.000000 0.000000 10.000000 
null_rope03_connect 0.000000 0.000000 0.000000 0.000000 0.000000 0.000000 10.000000 
null_rope04_connect 0.000000 0.000000 0.000000 0.000000 0.000000 0.000000 10.000000 
Rope3_Seg01 0.000000 0.000000 0.000000 0.000000 0.000000 0.000000 10.000000 
Rope3_Seg02 0.000000 0.000000 0.000000 0.000000 0.000000 0.000000 10.000000 
Rope3_Seg03 0.000000 0.000000 0.000000 0.000000 0.000000 0.000000 10.000000 
Rope3_Seg04 0.000000 0.000000 0.000000 0.000000 0.000000 0.000000 10.000000 
Rope3_Seg05 0.000000 0.000000 0.000000 0.000000 0.000000 0.000000 10.000000 
Rope3_Seg06 0.000000 0.000000 0.000000 0.000000 0.000000 0.000000 10.000000 
Rope3_Seg07 0.000000 0.000000 0.000000 0.000000 0.000000 0.000000 10.000000 
Rope3_Seg08 0.000000 0.000000 0.000000 0.000000 0.000000 0.000000 10.000000 
Rope3_Seg09 0.000000 0.000000 0.000000 0.000000 0.000000 0.000000 10.000000 
R_rear_hand01 0.000000 0.000000 0.000000 0.000000 0.000000 0.000000 10.000000 
R_rear_hand02 0.000000 0.000000 0.000000 0.000000 0.000000 0.000000 10.000000 
R_rear_hand03 0.000000 0.000000 0.000000 0.000000 0.000000 0.000000 10.000000 
Rope4_Seg01 0.000000 0.000000 0.000000 0.000000 0.000000 0.000000 10.000000 
Rope4_Seg02 0.000000 0.000000 0.000000 0.000000 0.000000 0.000000 10.000000 
Rope4_Seg03 0.000000 0.000000 0.000000 0.000000 0.000000 0.000000 10.000000 
Rope4_Seg04 0.000000 0.000000 0.000000 0.000000 0.000000 0.000000 10.000000 
Rope4_Seg05 0.000000 0.000000 0.000000 0.000000 0.000000 0.000000 10.000000 
Rope4_Seg06 0.000000 0.000000 0.000000 0.000000 0.000000 0.000000 10.000000 
Rope4_Seg07 0.000000 0.000000 0.000000 0.000000 0.000000 0.000000 10.000000 
Rope4_Seg08 0.000000 0.000000 0.000000 0.000000 0.000000 0.000000 10.000000 
Rope4_Seg09 0.000000 0.000000 0.000000 0.000000 0.000000 0.000000 10.000000 
L_rear_hand01 0.000000 0.000000 0.000000 0.000000 0.000000 0.000000 10.000000 
L_rear_hand02 0.000000 0.000000 0.000000 0.000000 0.000000 0.000000 10.000000 
L_rear_hand03 0.000000 0.000000 0.000000 0.000000 0.000000 0.000000 10.000000 
#Beginning of Data. Separated by tabs
#Fr	Tx	Ty	Tz	Rx	Ry	Rz	SF
[MASTER]
18 -0.000739 3837.478516 308.356445 0.001660 0.001660 0.001660 3849.847412
19 -0.000787 4050.437500 252.127975 0.001660 0.001660 0.001660 4058.276855
[root]
18 -31.457167 -59.703674 1502.336182 -93.917488 -14.389508 -92.158073 1503.850952
19 -28.646128 -60.808105 1502.161865 -95.203499 -16.374727 -91.960510 1503.665039
[chest]
18 -84.512650 -34.090519 0.000000 -1.909928 0.890102 -179.027176 91.129311
19 -84.512650 -34.090519 0.000000 -1.896326 0.917176 -178.582306 91.129311
[L_mid_tent01]
18 27.299145 22.179218 -249.918716 -15.421049 8.596407 14.521594 252.381714
19 27.299147 22.179224 -249.918716 -16.285975 9.178527 14.287941 252.381714
[R_mid_tent01]
18 23.228794 24.509907 226.238495 -174.249985 -12.307282 24.569557 228.744751
19 23.228794 24.509907 226.238495 -172.640762 -13.327896 24.545443 228.744751
[spine01]
18 -0.361383 -0.195265 0.000000 0.002026 0.001185 29.373226 0.410763
19 -0.361383 -0.195265 0.000000 0.002020 0.001195 28.811539 0.410763
[Bip01_Neck]
18 165.484543 71.581718 0.000119 176.643677 -1.657967 43.431911 180.302734
19 165.484543 71.581718 0.000119 176.643677 -1.657967 43.431911 180.302734
[L_humerus]
18 -13.983130 -135.272980 -120.471481 -6.678783 65.215317 83.224182 181.680161
19 -13.983130 -135.272980 -120.471481 -6.579081 65.579536 83.336281 181.680161
[R_humerus]
18 -13.983309 -135.273102 125.287651 26.148952 -66.071396 69.556351 184.909012
19 -13.983309 -135.273102 125.287651 26.297869 -66.452225 69.399651 184.909012
[weapon_bone]
18 235.964890 -300.705902 0.000000 0.000000 -89.951546 -128.212341 382.234833
19 235.964890 -300.705902 0.000000 0.000000 -89.951546 -128.212341 382.234833
[Bip01_Head]
18 213.338608 186.009064 7.986794 4.443141 0.096322 -43.897816 283.154602
19 213.327026 186.042328 7.559204 5.200446 6.151311 -43.834991 283.155945
[eye_left_bone]
18 -24.626970 125.451866 -64.772606 0.000000 -90.000000 -99.840431 143.318359
19 -24.626970 125.451866 -64.772606 0.000000 -90.000000 -99.840431 143.318359
[eye_right_bone]
18 -24.626970 125.451866 64.327362 0.000000 -89.965736 80.156380 143.117676
19 -24.626970 125.451866 64.327362 0.000000 -89.965736 80.156380 143.117676
[L_forearm]
18 322.776093 0.000000 -0.000119 0.000421 -0.002309 -110.663399 322.776093
19 322.776093 0.000000 -0.000119 0.000418 -0.002310 -110.536842 322.776093
[L_front_hand]
18 241.149185 -0.042021 -3.300071 -178.667953 -1.835447 -27.422342 241.171753
19 241.149185 -0.042021 -3.300071 -178.667953 -1.835447 -27.422350 241.171753
[L_weapon_bone]
18 156.183838 0.000000 0.000000 0.000014 0.000007 0.000001 156.183838
19 156.183838 0.000000 0.000000 0.000014 0.000007 0.000001 156.183838
[L_front_hand01_01]
18 86.095154 20.947098 -0.655860 -0.289102 -0.524108 66.611076 88.609184
19 86.095154 20.947098 -0.655860 -0.291918 -0.522544 67.227623 88.609184
[L_front_hand02_01]
18 86.935165 -11.437475 24.513514 142.580521 -55.269005 -47.395390 91.046425
19 86.935165 -11.437475 24.513514 143.299149 -55.645802 -48.269920 91.046425
[L_front_hand03_01]
18 86.637497 -14.123976 -20.424902 -142.879883 53.494282 -49.391994 90.126129
19 86.637497 -14.123976 -20.424902 -143.556351 53.862476 -50.232788 90.126129
[L_front_hand01_02]
18 71.020905 -0.000179 0.000030 0.000315 -0.002326 -105.441971 71.020905
19 71.020905 -0.000179 0.000030 0.000316 -0.002326 -105.462708 71.020905
[L_front_hand02_02]
18 71.020927 -0.000119 0.000060 0.000315 -0.002326 -105.441971 71.020927
19 71.020927 -0.000119 0.000060 0.000316 -0.002326 -105.462708 71.020927
[L_front_hand03_02]
18 71.020905 -0.000060 0.000060 0.000315 -0.002326 -105.441971 71.020905
19 71.020905 -0.000060 0.000060 0.000316 -0.002326 -105.462708 71.020905
[R_forearm]
18 322.776428 -0.000060 0.000030 0.201383 0.067351 -109.308525 322.776428
19 322.776428 -0.000060 0.000030 0.201449 0.067152 -109.195381 322.776428
[R_front_hand]
18 238.847015 -0.006795 2.210259 -2.635298 -10.645461 -26.312506 238.857239
19 238.847015 -0.006795 2.210259 -2.635298 -10.645461 -26.312506 238.857239
[R_weapon_bone]
18 155.664093 0.002503 -0.000030 0.003487 0.001180 -90.988930 155.664078
19 155.664093 0.002503 -0.000030 0.003487 0.001180 -90.988930 155.664078
[R_front_hand01_01]
18 87.624611 14.231146 22.918642 -140.217056 -53.925083 44.603291 91.683487
19 87.624611 14.231146 22.918642 -141.470367 -54.661602 46.147430 91.683487
[R_front_hand02_01]
18 89.356956 14.367283 -19.491137 140.984955 52.347897 47.247559 92.579636
19 89.356956 14.367283 -19.491137 142.182632 53.068485 48.753605 92.579636
[R_front_hand03_01]
18 87.286232 -22.307278 -0.143439 0.075044 -0.448119 -64.698715 90.091743
19 87.286232 -22.307278 -0.143439 0.083738 -0.444647 -65.861671 90.091743
[R_front_hand01_02]
18 71.020905 0.000060 0.000119 0.002323 -0.000334 106.381714 71.020905
19 71.020905 0.000060 0.000119 0.002323 -0.000334 106.381714 71.020905
[R_front_hand02_02]
18 71.020844 -0.000030 -0.000119 0.002323 -0.000334 106.381714 71.020836
19 71.020844 -0.000030 -0.000119 0.002323 -0.000334 106.381714 71.020836
[R_front_hand03_02]
18 71.020905 0.000000 0.000030 0.002323 -0.000334 106.381714 71.020905
19 71.020905 0.000000 0.000030 0.002323 -0.000334 106.381714 71.020905
[null_rope01_connect]
18 328.732483 0.000000 -0.000238 -149.392303 -67.558327 -122.124222 328.732483
19 328.732483 0.000000 -0.000238 -148.474152 -65.328407 -120.905098 328.732483
[Rope1_Seg01]
18 -0.000022 0.000017 0.000086 52.249603 8.684077 -121.263893 0.000091
19 -0.000023 0.000015 0.000092 50.914486 6.670162 -120.964508 0.000096
[Rope1_Seg02]
18 139.999863 -0.000179 0.000000 -1.748241 0.435835 0.252219 139.999863
19 139.999863 -0.000179 0.000000 -3.682462 0.655235 1.089043 139.999863
[Rope1_Seg03]
18 139.999924 0.000060 -0.000060 3.229407 -0.984291 -0.303165 139.999924
19 139.999924 0.000060 -0.000060 0.278382 -0.796437 0.746553 139.999924
[Rope1_Seg04]
18 139.999924 -0.000060 -0.000119 11.102699 -3.760938 -1.174385 139.999924
19 139.999924 -0.000060 -0.000119 3.642853 -2.335006 0.496565 139.999924
[Rope1_Seg05]
18 139.999832 0.000119 -0.000060 -50.283173 14.848907 2.201434 139.999832
19 139.999832 0.000119 -0.000060 -34.831142 12.401383 3.909723 139.999832
[Rope1_Seg06]
18 139.999954 0.000119 -0.000060 -26.499786 5.330892 8.808751 139.999954
19 139.999954 0.000119 -0.000060 -19.594774 5.040516 6.233614 139.999954
[Rope1_Seg07]
18 139.999985 0.000060 0.000000 -6.311095 0.288060 3.845066 139.999985
19 139.999985 0.000060 0.000000 -6.199559 0.974489 3.049915 139.999985
[Rope1_Seg09]
18 121.602913 0.000119 -0.000089 -89.793175 -1.359789 0.847147 121.602913
19 121.602913 0.000119 -0.000089 -89.793175 -1.359789 0.847147 121.602913
[L_mid_hand01]
18 103.859421 1.038730 8.195221 129.242493 -66.931091 -37.458961 104.187431
19 103.859421 1.038730 8.195221 130.544373 -67.584534 -38.866943 104.187431
[L_mid_hand02]
18 105.572853 -4.139662 -10.864139 -168.136536 43.236561 -72.353096 106.211075
19 105.572853 -4.139662 -10.864139 -168.923172 43.409309 -73.498886 106.211075
[L_mid_hand03]
18 104.641464 17.579376 -3.913581 -6.285013 17.719217 74.000862 106.179977
19 104.641464 17.579376 -3.913581 -6.012627 17.808174 74.893669 106.179977
[null_rope02_connect]
18 328.732849 0.000179 -0.000119 -117.424164 81.098145 -16.408741 328.732849
19 328.732849 0.000179 -0.000119 -116.493713 80.378311 -17.132481 328.732849
[Rope2_Seg01]
18 0.000060 0.000066 0.000000 28.459562 2.634352 -43.818943 0.000089
19 0.000061 0.000061 0.000000 37.695244 4.128065 -46.252834 0.000086
[Rope2_Seg02]
18 139.999741 -0.000060 -0.000119 42.039703 -5.333064 -13.368165 139.999756
19 139.999741 -0.000060 -0.000119 36.160549 -8.573269 -11.075741 139.999756
[Rope2_Seg03]
18 140.000107 0.000030 0.000000 24.154495 -17.876726 -8.961540 140.000107
19 140.000107 0.000030 0.000000 16.568027 -17.192667 -4.738657 140.000107
[Rope2_Seg04]
18 139.999802 0.000000 -0.000060 8.449362 -25.902079 -0.621844 139.999802
19 139.999802 0.000000 -0.000060 5.746940 -19.596653 0.837572 139.999802
[Rope2_Seg05]
18 139.999985 -0.000060 0.000119 0.636841 2.126808 -2.296743 139.999985
19 139.999985 -0.000060 0.000119 1.251937 2.257227 -3.100529 139.999985
[Rope2_Seg06]
18 139.999893 -0.000030 -0.000119 -2.022442 13.479937 -4.347462 139.999893
19 139.999893 -0.000030 -0.000119 0.076987 7.849304 -4.034097 139.999893
[Rope2_Seg07]
18 139.999893 0.000060 -0.000060 -0.472892 4.274615 -1.575024 139.999893
19 139.999893 0.000060 -0.000060 0.591143 1.829647 -1.497589 139.999893
[Rope2_Seg09]
18 121.338966 0.000089 -0.000060 33.793236 -1.359788 -0.847141 121.338966
19 121.338966 0.000089 -0.000060 33.793236 -1.359788 -0.847141 121.338966
[R_mid_hand01]
18 104.680779 11.144459 -10.335981 -24.361835 42.075401 58.684284 105.778534
19 104.680779 11.144459 -10.335981 -20.399694 43.830383 64.493835 105.778534
[R_mid_hand02]
18 104.070427 2.443552 8.231699 59.930573 -60.321301 27.236141 104.424065
19 104.070427 2.443552 8.231699 55.242626 -64.206024 32.532070 104.424065
[R_mid_hand03]
18 106.028137 -11.221827 -5.996406 -174.631485 14.897616 -67.203407 106.788818
19 106.028137 -11.221827 -5.996406 -175.861618 15.275425 -71.940262 106.788818
[spine02]
18 129.756927 0.001550 0.000119 0.482253 -4.031080 -14.708903 129.756927
19 129.756927 0.001550 0.000119 0.470138 -4.032593 -14.527299 129.756927
[spine03]
18 78.613968 0.081548 -4.898999 1.970656 3.793665 17.584091 78.766502
19 78.613960 0.081543 -4.898998 1.962470 3.797881 17.477068 78.766495
[pelvis]
18 169.435242 0.051022 0.000000 -0.068911 -0.178291 16.353277 169.435257
19 169.435242 0.051022 0.000000 -0.067738 -0.178547 16.123632 169.435257
[null_rope03_connect]
18 -1.257226 -2.466202 137.391083 -129.024750 -85.969925 -175.222610 137.418976
19 -1.257226 -2.466202 137.391083 -137.999664 -84.956902 -163.568436 137.418976
[null_rope04_connect]
18 -1.259640 -2.480268 -137.844437 -129.024750 -85.969925 -175.222610 137.872513
19 -1.259640 -2.480268 -137.844437 -137.999664 -84.956902 -163.568436 137.872513
[Rope3_Seg01]
18 0.000010 0.000038 -0.000114 -131.226166 8.983410 -80.696861 0.000121
19 0.000010 0.000038 -0.000114 -131.325195 6.430543 -84.569595 0.000121
[Rope3_Seg02]
18 139.999924 -0.000119 0.000060 0.658938 5.710420 4.333797 139.999924
19 139.999924 -0.000119 0.000060 0.405657 3.469927 2.879120 139.999924
[Rope3_Seg03]
18 139.999924 -0.000119 0.000119 1.231430 6.866590 5.200582 139.999924
19 139.999924 -0.000119 0.000119 0.678413 4.361192 3.467803 139.999924
[Rope3_Seg04]
18 139.999924 0.000119 0.000000 3.173517 10.720286 8.102363 139.999924
19 139.999924 0.000119 0.000000 1.349297 6.349168 4.808551 139.999924
[Rope3_Seg05]
18 139.999924 -0.000238 0.000060 -0.780700 -4.540961 -3.497071 139.999924
19 139.999924 -0.000238 0.000060 -0.712541 -4.528252 -2.722423 139.999924
[Rope3_Seg06]
18 139.999893 -0.000119 -0.000060 -0.459066 -11.289405 -8.583756 139.999893
19 139.999893 -0.000119 -0.000060 -0.266213 -6.893243 -4.606240 139.999893
[Rope3_Seg07]
18 139.999771 0.000060 -0.000119 0.308931 -4.467898 -3.559723 139.999771
19 139.999771 0.000060 -0.000119 0.299152 -2.645222 -1.741709 139.999771
[Rope3_Seg08]
18 139.999985 -0.000060 0.000000 0.466506 -2.527920 -2.007292 139.999985
19 139.999985 -0.000060 0.000000 0.431902 -1.611757 -1.048073 139.999985
[Rope3_Seg09]
18 90.185997 -0.000179 -0.000060 89.793228 -1.359877 -0.847183 90.185997
19 90.185997 -0.000179 -0.000060 89.793228 -1.359877 -0.847183 90.185997
[R_rear_hand01]
18 103.366196 -6.073594 -10.757982 -174.043228 23.976637 -65.002998 104.101845
19 103.366196 -6.073594 -10.757982 -175.914093 24.346796 -69.567566 104.101845
[R_rear_hand02]
18 100.509819 12.039542 -7.992327 -18.533085 34.659092 62.503902 101.543350
19 100.509819 12.039542 -7.992327 -15.704349 35.886925 67.395027 101.543350
[R_rear_hand03]
18 101.539970 5.215704 5.435467 76.952385 -63.971771 15.629117 101.819031
19 101.539970 5.215704 5.435467 74.640678 -68.020927 18.152246 101.819031
[Rope4_Seg01]
18 0.000010 0.000038 -0.000114 43.866650 9.146309 -127.219627 0.000121
19 0.000010 0.000038 -0.000114 44.493965 9.867537 -124.231377 0.000121
[Rope4_Seg02]
18 139.999985 0.000060 0.000119 1.458095 5.478577 6.591443 139.999985
19 139.999985 0.000060 0.000119 1.282284 4.123196 6.242283 139.999985
[Rope4_Seg03]
18 139.999924 0.000000 -0.000238 1.473950 8.604541 10.015263 139.999924
19 139.999924 0.000000 -0.000238 1.243397 6.409138 9.374683 139.999924
[Rope4_Seg04]
18 139.999985 0.000000 0.000119 0.951783 19.259399 25.450647 139.999985
19 139.999985 0.000000 0.000119 0.202406 14.514958 25.590950 139.999985
[Rope4_Seg05]
18 139.999802 -0.000060 -0.000119 -2.423086 8.417056 9.014452 139.999802
19 139.999802 -0.000060 -0.000119 -0.796411 6.450961 5.546702 139.999802
[Rope4_Seg06]
18 139.999924 0.000000 0.000060 9.559103 -9.429087 -20.930233 139.999924
19 139.999924 0.000000 0.000060 7.799710 -5.767070 -20.779697 139.999924
[Rope4_Seg07]
18 139.999802 0.000000 0.000000 1.899000 -4.768958 -7.781479 139.999802
19 139.999802 0.000000 0.000000 1.268803 -1.955163 -5.755613 139.999802
[Rope4_Seg08]
18 139.999924 0.000000 0.000119 -1.024972 -1.801384 -2.994987 139.999924
19 139.999924 0.000000 0.000119 -1.062496 -0.843845 -2.617086 139.999924
[Rope4_Seg09]
18 90.185791 0.000060 0.000060 -135.617828 2.228885 0.850567 90.185791
19 90.185791 0.000060 0.000060 -135.617828 2.228885 0.850567 90.185791
[L_rear_hand01]
18 101.696655 -8.392275 -7.654577 -13.354956 -36.717747 108.641342 102.329041
19 101.696655 -8.392275 -7.654577 -12.874829 -36.868488 107.832764 102.329041
[L_rear_hand02]
18 102.726799 -1.568258 5.773216 72.111618 71.190071 159.144638 102.900848
19 102.726799 -1.568258 5.773216 71.484581 71.816628 158.486160 102.900848
[L_rear_hand03]
18 104.552910 9.721220 -10.420293 -177.406540 -24.537506 -106.814919 105.519653
19 104.552910 9.721220 -10.420293 -177.714203 -24.565960 -106.089035 105.519653
